<svg width="102" height="20" viewBox="0 0 102 20" fill="none" xmlns="http://www.w3.org/2000/svg">
<path d="M8.2 6.8V13.4C8.2 15.2 9.6 16.6 11.4 16.6C13.2 16.6 14.6 15.2 14.6 13.4V6.8H17.8V13.4C17.8 17 14.8 20 11.4 20C8 20 5 17 5 13.4V6.8H8.2Z" fill="currentColor"/>
<path d="M19.8 6.8H23V8.2C23.8 7.2 24.8 6.8 26.2 6.8C29.4 6.8 32 9.4 32 12.8S29.4 18.8 26.2 18.8C24.8 18.8 23.8 18.4 23 17.4V18.6H19.8V6.8ZM23 12.8C23 11 24.4 9.6 26.2 9.6C28 9.6 29.4 11 29.4 12.8C29.4 14.6 28 16 26.2 16C24.4 16 23 14.6 23 12.8Z" fill="currentColor"/>
<path d="M44.6 6.8L48.4 18.6H45.2L44.6 16.4H40.6L40 18.6H36.8L40.6 6.8H44.6ZM41.4 13.6H43.8L42.6 9.8L41.4 13.6Z" fill="currentColor"/>
<path d="M49.8 6.8H53V8.2C53.8 7.2 54.8 6.8 56.2 6.8C58.4 6.8 60.2 8.6 60.2 11V18.6H57V11.4C57 10.2 56.2 9.4 55 9.4C53.8 9.4 53 10.2 53 11.4V18.6H49.8V6.8Z" fill="currentColor"/>
<path d="M62.2 6.8H65.4V7.6L68.6 11.2L71.8 7.6V6.8H75L70.4 12.2L75.4 18.6H72.2L68.6 14.4L65 18.6H61.8L66.8 12.2L62.2 6.8Z" fill="currentColor"/>
<path d="M77.2 6.8H80.4V8.2C81.2 7.2 82.2 6.8 83.6 6.8C85.8 6.8 87.6 8.6 87.6 11V18.6H84.4V11.4C84.4 10.2 83.6 9.4 82.4 9.4C81.2 9.4 80.4 10.2 80.4 11.4V18.6H77.2V6.8Z" fill="currentColor"/>
<path d="M34.2 6.8H37.4V9.6C37.4 11.8 36.2 13.2 34.2 13.2C32.2 13.2 31 11.8 31 9.6V6.8H34.2ZM34.2 18.6H37.4V15.8H34.2V18.6Z" fill="currentColor"/>
<path d="M89.2 6.8H96.6V9.4H92.4V11.2H96V13.8H92.4V16H96.6V18.6H89.2V6.8Z" fill="currentColor"/>
<path d="M98.2 6.8H101.4V9.6C101.4 11.8 100.2 13.2 98.2 13.2C96.2 13.2 95 11.8 95 9.6V6.8H98.2ZM98.2 18.6H101.4V15.8H98.2V18.6Z" fill="currentColor"/>
</svg> 