<svg xmlns="http://www.w3.org/2000/svg" viewBox="0 0 800 450">
  <defs>
    <linearGradient id="bg2" x1="0%" y1="0%" x2="100%" y2="100%">
      <stop offset="0%" style="stop-color:#111111"/>
      <stop offset="100%" style="stop-color:#1a1a1a"/>
    </linearGradient>
  </defs>
  <rect fill="url(#bg2)" width="800" height="450"/>
  <!-- Brain/AI icon -->
  <circle cx="400" cy="170" r="55" fill="none" stroke="#90F23C" stroke-width="3"/>
  <circle cx="380" cy="155" r="8" fill="#90F23C"/>
  <circle cx="420" cy="155" r="8" fill="#90F23C"/>
  <circle cx="400" cy="185" r="8" fill="#90F23C"/>
  <line x1="380" y1="155" x2="400" y2="185" stroke="#90F23C" stroke-width="2"/>
  <line x1="420" y1="155" x2="400" y2="185" stroke="#90F23C" stroke-width="2"/>
  <line x1="380" y1="155" x2="420" y2="155" stroke="#90F23C" stroke-width="2"/>
  <!-- Checklist -->
  <rect x="300" y="260" width="20" height="20" rx="4" fill="none" stroke="#90F23C" stroke-width="2"/>
  <path d="M305 270 L310 275 L320 265" fill="none" stroke="#90F23C" stroke-width="2" stroke-linecap="round"/>
  <rect x="335" y="265" width="140" height="10" rx="3" fill="#90F23C"/>
  <rect x="300" y="295" width="20" height="20" rx="4" fill="none" stroke="#90F23C" stroke-width="2"/>
  <path d="M305 305 L310 310 L320 300" fill="none" stroke="#90F23C" stroke-width="2" stroke-linecap="round"/>
  <rect x="335" y="300" width="120" height="10" rx="3" fill="#90F23C" opacity="0.7"/>
  <rect x="300" y="330" width="20" height="20" rx="4" fill="none" stroke="#666" stroke-width="2"/>
  <rect x="335" y="335" width="100" height="10" rx="3" fill="#444"/>
  <text x="400" y="400" text-anchor="middle" fill="#90F23C" font-family="system-ui, sans-serif" font-size="24" font-weight="600">AI READINESS ASSESSMENT</text>
</svg>